#!OML:ASF F:\VICON\USERDATA\INSTALL\Justin_Nancy\Justin_Nancy.ASF
:FULLY-SPECIFIED
:DEGREES
369
root -0.0571557 15.2701 17.6002 -22.2619 1.84095 1.44213
lowerback 6.70324 0.294786 -5.82557
upperback 3.15462 0.0559864 1.1018
thorax -0.495317 -0.0338304 4.41311
lowerneck -10.7251 -4.21192 -10.5289
upperneck 23.1251 -6.19552 9.87915
head 9.69533 -2.78847 4.51438
rclavicle 1.2424e-015 4.77083e-015
rhumerus -38.0663 -15.7788 -80.0253
rradius 42.9066
rwrist -16.2875
rhand -20.6482 11.4545
rfingers 7.12502
rthumb 5.714 -18.4484
lclavicle 1.2424e-015 4.77083e-015
lhumerus -45.6549 26.6454 73.4596
lradius 39.4972
lwrist 18.5769
lhand -21.9743 21.9881
lfingers 7.12502
lthumb 4.4336 51.9217
rfemur -10.3446 -1.48122 23.1035
rtibia 67.3752
rfoot -24.3009 -9.57645
rtoes 4.21304
lfemur -12.4162 -3.4704 -16.6174
ltibia 63.5739
lfoot -24.5636 -0.4761
ltoes -9.80302
370
root -0.0887628 15.3251 17.7026 -22.0799 1.79609 1.02398
lowerback 6.28526 0.381516 -5.40634
upperback 3.31077 0.224857 1.17951
thorax -0.122598 0.0399554 4.24481
lowerneck -10.9144 -4.34773 -10.6583
upperneck 22.1122 -6.35294 10.2473
head 9.41147 -2.83008 4.62115
rclavicle 4.42296e-015 -7.15625e-015
rhumerus -35.7085 -11.7131 -83.5642
rradius 46.4151
rwrist -10.3843
rhand -20.1783 12.6794
rfingers 7.12502
rthumb 6.16766 -17.2108
lclavicle 4.42296e-015 -7.15625e-015
lhumerus -43.837 22.0023 78.2431
lradius 45.3895
lwrist 20.2457
lhand -24.2203 22.607
lfingers 7.12502
lthumb 2.26463 52.5748
rfemur -9.93477 -1.23511 23.8449
rtibia 66.9762
rfoot -23.7977 -9.42607
rtoes 4.37712
lfemur -12.2107 -3.48519 -16.0761
ltibia 63.5384
lfoot -24.4238 -0.291951
ltoes -10.7881
371
root -0.117913 15.3866 17.7992 -22.0464 1.04014 0.307074
lowerback 6.04624 0.64414 -4.38842
upperback 3.23149 0.641247 1.33143
thorax -0.115239 0.261222 3.80109
lowerneck -10.3058 -4.34769 -10.689
upperneck 21.5421 -6.45124 10.6341
head 9.12293 -2.85901 4.74547
rclavicle -1.49089e-016 -2.68359e-015
rhumerus -34.287 -7.74037 -86.0589
rradius 49.7552
rwrist -1.42349
rhand -19.1097 14.787
rfingers 7.12502
rthumb 7.19924 -15.0705
lclavicle -1.49089e-016 -2.68359e-015
lhumerus -41.2341 20.4378 79.9429
lradius 46.0014
lwrist 15.7066
lhand -25.3016 23.0383
lfingers 7.12502
lthumb 1.22028 53.0145
rfemur -9.33558 -0.43715 25.2076
rtibia 66.4117
rfoot -22.9711 -9.42219
rtoes 3.75697
lfemur -11.6647 -3.08484 -14.9223
ltibia 63.4572
lfoot -24.2318 -0.184746
ltoes -12.9613
372
root -0.154735 15.4466 17.8555 -21.7722 0.657247 -0.613782
lowerback 6.21823 0.8292 -3.40779
upperback 2.88018 0.933267 1.55099
thorax -0.594189 0.432764 3.45175
lowerneck -9.72872 -4.3697 -10.7585
upperneck 21.6073 -6.60072 10.9385
head 9.06625 -2.92225 4.85694
rclavicle 3.71479e-015 -5.46658e-015
rhumerus -33.3926 -4.12995 -87.7472
rradius 53.4339
rwrist 8.23512
rhand -18.9969 16.2463
rfingers 7.12502
rthumb 7.30813 -13.6075
lclavicle 3.71479e-015 -5.46658e-015
lhumerus -39.4894 18.4188 81.3914
lradius 47.5667
lwrist 11.8854
lhand -25.2184 23.1689
lfingers 7.12502
lthumb 1.30062 53.1447
rfemur -9.19442 -0.0658263 26.6396
rtibia 65.8284
rfoot -21.8275 -9.52467
rtoes 1.31186
lfemur -11.7792 -3.12318 -13.6516
ltibia 63.3865
lfoot -23.5857 -0.456133
ltoes -14.0945
373
root -0.178156 15.5435 17.9341 -21.4991 0.926958 -0.842866
lowerback 6.01038 0.867648 -3.12863
upperback 2.77993 1.00561 1.5364
thorax -0.58424 0.472744 3.27559
lowerneck -9.89467 -4.43148 -10.8477
upperneck 22.1401 -6.72726 11.0559
head 9.3051 -2.96995 4.91155
rclavicle 2.00648e-015 -2.23633e-015
rhumerus -32.2751 -0.763416 -88.8948
rradius 57.1069
rwrist 17.1698
rhand -19.9464 16.9799
rfingers 7.12502
rthumb 6.39155 -12.9036
lclavicle 2.00648e-015 -2.23633e-015
lhumerus -38.0461 16.1665 82.6724
lradius 49.7343
lwrist 9.42705
lhand -25.8617 22.73
lfingers 7.12502
lthumb 0.679353 52.7086
rfemur -8.77608 -0.234351 26.8465
rtibia 65.096
rfoot -21.0544 -9.22196
rtoes 0.0208597
lfemur -11.7211 -3.71015 -13.6038
ltibia 63.0909
lfoot -22.7683 -0.456841
ltoes -14.2406
374
root -0.199322 15.6427 18.0195 -21.2743 1.59525 -0.738327
lowerback 5.66896 0.744813 -3.37599
upperback 2.76271 0.838215 1.4554
thorax -0.400424 0.38413 3.34565
lowerneck -9.80982 -4.42045 -10.8342
upperneck 22.3597 -6.70233 10.9008
head 9.35654 -2.97381 4.86359
rclavicle -9.97029e-015 -4.57205e-015
rhumerus -31.0324 2.5775 -89.4155
rradius 60.5765
rwrist 25.5678
rhand -21.0843 17.5263
rfingers 7.12502
rthumb 5.29292 -12.3876
lclavicle -9.97029e-015 -4.57205e-015
lhumerus -36.8922 14.0655 83.5199
lradius 51.942
lwrist 7.71047
lhand -27.0949 22.2824
lfingers 7.12502
lthumb -0.511724 52.2615
rfemur -8.21885 -0.736862 26.473
rtibia 64.2906
rfoot -20.4626 -8.73948
rtoes 0.722602
lfemur -11.534 -4.68606 -14.1395
ltibia 62.7171
lfoot -21.8487 -0.317263
ltoes -14.5445
375
root -0.225614 15.7283 18.0731 -20.7327 1.87459 -1.15551
lowerback 5.49527 0.701867 -3.03416
upperback 2.8641 0.804074 1.5281
thorax -0.193853 0.364323 3.23222
lowerneck -10.9782 -4.59856 -10.5308
upperneck 22.8457 -6.85254 10.525
head 9.74713 -3.01787 4.65484
rclavicle -1.21756e-015 1.2424e-015
rhumerus -29.1905 6.03577 -89.608
rradius 63.6311
rwrist 29.3772
rhand -22.4118 17.5038
rfingers 7.12502
rthumb 4.01111 -12.4382
lclavicle -1.21756e-015 1.2424e-015
lhumerus -35.1298 12.0128 84.1176
lradius 53.9599
lwrist 5.9869
lhand -28.5226 22.4723
lfingers 7.12502
lthumb -1.89059 52.4437
rfemur -8.24306 -0.961266 26.8992
rtibia 63.3974
rfoot -19.6365 -8.34215
rtoes 1.96758
lfemur -11.9432 -5.40239 -13.7983
ltibia 62.3448
lfoot -20.647 -0.418476
ltoes -15.0086
